<?xml version="1.0" encoding="UTF-8"?>
<svg id="_レイヤー_2" data-name="レイヤー 2" xmlns="http://www.w3.org/2000/svg" width="13" height="13" viewBox="0 0 13 13">
  <g id="_レイヤー_1-2" data-name="レイヤー 1">
    <g>
      <path d="M12.5,0h-4.91c-.28,0-.5.22-.5.5s.22.5.5.5h3.7l-5.69,5.69c-.2.2-.2.51,0,.71.1.1.23.15.35.15s.26-.05.35-.15L12,1.71v3.7c0,.28.22.5.5.5s.5-.22.5-.5V.5c0-.28-.22-.5-.5-.5Z"/>
      <path d="M10.32,7.64c-.28,0-.5.22-.5.5v3.86H1V3.18h3.86c.28,0,.5-.22.5-.5s-.22-.5-.5-.5H.5c-.28,0-.5.22-.5.5v9.82c0,.28.22.5.5.5h9.82c.28,0,.5-.22.5-.5v-4.36c0-.28-.22-.5-.5-.5Z"/>
    </g>
  </g>
</svg>